# xmcd CD database file
#
# Track frame offsets:
#	150
#	32078
#	57424
#	96538
#	119036
#	140613
#	165000
#	189572
#	235987
#	262111
#	289475
#
# Disc length: 4272 seconds
#
# Revision: 0
# Processed by: cddbd v1.5.2PL0 Copyright (c) Steve Scherf et al.
# Submitted via: CDex 1.51
#
DISCID=ab10ae0b
DTITLE=Annie Hawkins' New Orleans Legacy - Zip-A-Dee-Doo-Dah
DYEAR=1998
DGENRE=Jazz
TTITLE0=Mazie
TTITLE1=Zip-A-Dee-Doo-Dah
TTITLE2=Going Up The River
TTITLE3=Baby
TTITLE4=For All We Know
TTITLE5=Bogalousa Strut
TTITLE6=In The Garden
TTITLE7=Over The Waves
TTITLE8=Down In Honky Tonk Town
TTITLE9=Memories
TTITLE10=Ting-A-Ling
EXTD=YEAR: 1998
EXTT0=
EXTT1=
EXTT2=
EXTT3=
EXTT4=
EXTT5=
EXTT6=
EXTT7=
EXTT8=
EXTT9=
EXTT10=
PLAYORDER=
